<svg width="306" height="66" viewBox="0 0 306 66" fill="none" xmlns="http://www.w3.org/2000/svg">
<g filter="url(#filter0_d_4_12)">
<rect x="4" y="4" width="140" height="50" rx="25" fill="#F25822"/>
</g>
<path d="M43.56 33.21C42.52 33.21 41.645 32.98 40.935 32.52C40.225 32.05 39.725 31.415 39.435 30.615L41.205 29.58C41.615 30.65 42.42 31.185 43.62 31.185C44.2 31.185 44.625 31.08 44.895 30.87C45.165 30.66 45.3 30.395 45.3 30.075C45.3 29.705 45.135 29.42 44.805 29.22C44.475 29.01 43.885 28.785 43.035 28.545C42.565 28.405 42.165 28.265 41.835 28.125C41.515 27.985 41.19 27.8 40.86 27.57C40.54 27.33 40.295 27.03 40.125 26.67C39.955 26.31 39.87 25.89 39.87 25.41C39.87 24.46 40.205 23.705 40.875 23.145C41.555 22.575 42.37 22.29 43.32 22.29C44.17 22.29 44.915 22.5 45.555 22.92C46.205 23.33 46.71 23.905 47.07 24.645L45.33 25.65C44.91 24.75 44.24 24.3 43.32 24.3C42.89 24.3 42.55 24.4 42.3 24.6C42.06 24.79 41.94 25.04 41.94 25.35C41.94 25.68 42.075 25.95 42.345 26.16C42.625 26.36 43.155 26.58 43.935 26.82C44.255 26.92 44.495 27 44.655 27.06C44.825 27.11 45.05 27.195 45.33 27.315C45.62 27.425 45.84 27.53 45.99 27.63C46.15 27.73 46.33 27.865 46.53 28.035C46.73 28.205 46.88 28.38 46.98 28.56C47.09 28.74 47.18 28.96 47.25 29.22C47.33 29.47 47.37 29.745 47.37 30.045C47.37 31.015 47.015 31.785 46.305 32.355C45.605 32.925 44.69 33.21 43.56 33.21ZM52.7004 27.36H51.0054V30.48C51.0054 30.74 51.0704 30.93 51.2004 31.05C51.3304 31.17 51.5204 31.24 51.7704 31.26C52.0204 31.27 52.3304 31.265 52.7004 31.245V33C51.3704 33.15 50.4304 33.025 49.8804 32.625C49.3404 32.225 49.0704 31.51 49.0704 30.48V27.36H47.7654V25.5H49.0704V23.985L51.0054 23.4V25.5H52.7004V27.36ZM59.5303 25.5H61.4653V33H59.5303V32.115C58.9503 32.845 58.1353 33.21 57.0853 33.21C56.0853 33.21 55.2253 32.83 54.5053 32.07C53.7953 31.3 53.4403 30.36 53.4403 29.25C53.4403 28.14 53.7953 27.205 54.5053 26.445C55.2253 25.675 56.0853 25.29 57.0853 25.29C58.1353 25.29 58.9503 25.655 59.5303 26.385V25.5ZM55.9603 30.78C56.3503 31.17 56.8453 31.365 57.4453 31.365C58.0453 31.365 58.5403 31.17 58.9303 30.78C59.3303 30.38 59.5303 29.87 59.5303 29.25C59.5303 28.63 59.3303 28.125 58.9303 27.735C58.5403 27.335 58.0453 27.135 57.4453 27.135C56.8453 27.135 56.3503 27.335 55.9603 27.735C55.5703 28.125 55.3753 28.63 55.3753 29.25C55.3753 29.87 55.5703 30.38 55.9603 30.78ZM65.155 26.79C65.335 26.31 65.63 25.95 66.04 25.71C66.46 25.47 66.925 25.35 67.435 25.35V27.51C66.845 27.44 66.315 27.56 65.845 27.87C65.385 28.18 65.155 28.695 65.155 29.415V33H63.22V25.5H65.155V26.79ZM73.0617 27.36H71.3667V30.48C71.3667 30.74 71.4317 30.93 71.5617 31.05C71.6917 31.17 71.8817 31.24 72.1317 31.26C72.3817 31.27 72.6917 31.265 73.0617 31.245V33C71.7317 33.15 70.7917 33.025 70.2417 32.625C69.7017 32.225 69.4317 31.51 69.4317 30.48V27.36H68.1267V25.5H69.4317V23.985L71.3667 23.4V25.5H73.0617V27.36ZM84.4582 22.5H86.5282V33H84.9532L80.4532 26.58V33H78.3832V22.5H79.9582L84.4582 28.905V22.5ZM94.776 32.07C94.006 32.83 93.066 33.21 91.956 33.21C90.846 33.21 89.906 32.83 89.136 32.07C88.376 31.3 87.996 30.36 87.996 29.25C87.996 28.14 88.376 27.205 89.136 26.445C89.906 25.675 90.846 25.29 91.956 25.29C93.066 25.29 94.006 25.675 94.776 26.445C95.546 27.205 95.931 28.14 95.931 29.25C95.931 30.36 95.546 31.3 94.776 32.07ZM90.501 30.735C90.891 31.125 91.376 31.32 91.956 31.32C92.536 31.32 93.021 31.125 93.411 30.735C93.801 30.345 93.996 29.85 93.996 29.25C93.996 28.65 93.801 28.155 93.411 27.765C93.021 27.375 92.536 27.18 91.956 27.18C91.376 27.18 90.891 27.375 90.501 27.765C90.121 28.155 89.931 28.65 89.931 29.25C89.931 29.85 90.121 30.345 90.501 30.735ZM105.444 25.5H107.499L105.114 33H103.269L101.889 28.455L100.509 33H98.6643L96.2793 25.5H98.3343L99.6093 30.105L100.974 25.5H102.804L104.169 30.12L105.444 25.5Z" fill="white"/>
<path d="M190.5 27.2679C191.833 28.0378 191.833 29.9623 190.5 30.7321L185.25 33.7631C183.917 34.5329 182.25 33.5707 182.25 32.0311L182.25 25.9689C182.25 24.4293 183.917 23.4671 185.25 24.2369L190.5 27.2679Z" fill="#F25822"/>
<circle cx="186" cy="29" r="13.5" stroke="#DDDDDD" stroke-width="3"/>
<path d="M219.165 33L216.225 22.5H218.4L220.41 30.285L222.6 22.5H224.37L226.575 30.285L228.585 22.5H230.76L227.82 33H225.465L223.485 26.07L221.52 33H219.165ZM236.677 25.5H238.612V33H236.677V32.115C236.097 32.845 235.282 33.21 234.232 33.21C233.232 33.21 232.372 32.83 231.652 32.07C230.942 31.3 230.587 30.36 230.587 29.25C230.587 28.14 230.942 27.205 231.652 26.445C232.372 25.675 233.232 25.29 234.232 25.29C235.282 25.29 236.097 25.655 236.677 26.385V25.5ZM233.107 30.78C233.497 31.17 233.992 31.365 234.592 31.365C235.192 31.365 235.687 31.17 236.077 30.78C236.477 30.38 236.677 29.87 236.677 29.25C236.677 28.63 236.477 28.125 236.077 27.735C235.687 27.335 235.192 27.135 234.592 27.135C233.992 27.135 233.497 27.335 233.107 27.735C232.717 28.125 232.522 28.63 232.522 29.25C232.522 29.87 232.717 30.38 233.107 30.78ZM244.656 27.36H242.961V30.48C242.961 30.74 243.026 30.93 243.156 31.05C243.286 31.17 243.476 31.24 243.726 31.26C243.976 31.27 244.286 31.265 244.656 31.245V33C243.326 33.15 242.386 33.025 241.836 32.625C241.296 32.225 241.026 31.51 241.026 30.48V27.36H239.721V25.5H241.026V23.985L242.961 23.4V25.5H244.656V27.36ZM249.356 33.21C248.226 33.21 247.281 32.83 246.521 32.07C245.771 31.31 245.396 30.37 245.396 29.25C245.396 28.13 245.771 27.19 246.521 26.43C247.281 25.67 248.226 25.29 249.356 25.29C250.086 25.29 250.751 25.465 251.351 25.815C251.951 26.165 252.406 26.635 252.716 27.225L251.051 28.2C250.901 27.89 250.671 27.645 250.361 27.465C250.061 27.285 249.721 27.195 249.341 27.195C248.761 27.195 248.281 27.39 247.901 27.78C247.521 28.16 247.331 28.65 247.331 29.25C247.331 29.84 247.521 30.33 247.901 30.72C248.281 31.1 248.761 31.29 249.341 31.29C249.731 31.29 250.076 31.205 250.376 31.035C250.686 30.855 250.916 30.61 251.066 30.3L252.746 31.26C252.416 31.85 251.951 32.325 251.351 32.685C250.751 33.035 250.086 33.21 249.356 33.21ZM257.94 25.29C258.76 25.29 259.435 25.565 259.965 26.115C260.505 26.665 260.775 27.425 260.775 28.395V33H258.84V28.635C258.84 28.135 258.705 27.755 258.435 27.495C258.165 27.225 257.805 27.09 257.355 27.09C256.855 27.09 256.455 27.245 256.155 27.555C255.855 27.865 255.705 28.33 255.705 28.95V33H253.77V22.5H255.705V26.34C256.175 25.64 256.92 25.29 257.94 25.29ZM268.862 33L265.337 22.5H267.587L270.152 30.57L272.702 22.5H274.967L271.427 33H268.862ZM276.556 24.6C276.236 24.6 275.956 24.485 275.716 24.255C275.486 24.015 275.371 23.735 275.371 23.415C275.371 23.095 275.486 22.815 275.716 22.575C275.956 22.335 276.236 22.215 276.556 22.215C276.886 22.215 277.166 22.335 277.396 22.575C277.636 22.815 277.756 23.095 277.756 23.415C277.756 23.735 277.636 24.015 277.396 24.255C277.166 24.485 276.886 24.6 276.556 24.6ZM275.596 33V25.5H277.531V33H275.596ZM284.987 22.5H286.922V33H284.987V32.115C284.417 32.845 283.607 33.21 282.557 33.21C281.547 33.21 280.682 32.83 279.962 32.07C279.252 31.3 278.897 30.36 278.897 29.25C278.897 28.14 279.252 27.205 279.962 26.445C280.682 25.675 281.547 25.29 282.557 25.29C283.607 25.29 284.417 25.655 284.987 26.385V22.5ZM281.417 30.78C281.817 31.17 282.317 31.365 282.917 31.365C283.517 31.365 284.012 31.17 284.402 30.78C284.792 30.38 284.987 29.87 284.987 29.25C284.987 28.63 284.792 28.125 284.402 27.735C284.012 27.335 283.517 27.135 282.917 27.135C282.317 27.135 281.817 27.335 281.417 27.735C281.027 28.125 280.832 28.63 280.832 29.25C280.832 29.87 281.027 30.38 281.417 30.78ZM290.327 30.045C290.587 30.985 291.292 31.455 292.442 31.455C293.182 31.455 293.742 31.205 294.122 30.705L295.682 31.605C294.942 32.675 293.852 33.21 292.412 33.21C291.172 33.21 290.177 32.835 289.427 32.085C288.677 31.335 288.302 30.39 288.302 29.25C288.302 28.12 288.672 27.18 289.412 26.43C290.152 25.67 291.102 25.29 292.262 25.29C293.362 25.29 294.267 25.67 294.977 26.43C295.697 27.19 296.057 28.13 296.057 29.25C296.057 29.5 296.032 29.765 295.982 30.045H290.327ZM290.297 28.545H294.122C294.012 28.035 293.782 27.655 293.432 27.405C293.092 27.155 292.702 27.03 292.262 27.03C291.742 27.03 291.312 27.165 290.972 27.435C290.632 27.695 290.407 28.065 290.297 28.545ZM303.739 32.07C302.969 32.83 302.029 33.21 300.919 33.21C299.809 33.21 298.869 32.83 298.099 32.07C297.339 31.3 296.959 30.36 296.959 29.25C296.959 28.14 297.339 27.205 298.099 26.445C298.869 25.675 299.809 25.29 300.919 25.29C302.029 25.29 302.969 25.675 303.739 26.445C304.509 27.205 304.894 28.14 304.894 29.25C304.894 30.36 304.509 31.3 303.739 32.07ZM299.464 30.735C299.854 31.125 300.339 31.32 300.919 31.32C301.499 31.32 301.984 31.125 302.374 30.735C302.764 30.345 302.959 29.85 302.959 29.25C302.959 28.65 302.764 28.155 302.374 27.765C301.984 27.375 301.499 27.18 300.919 27.18C300.339 27.18 299.854 27.375 299.464 27.765C299.084 28.155 298.894 28.65 298.894 29.25C298.894 29.85 299.084 30.345 299.464 30.735Z" fill="#AAAAAA"/>
<defs>
<filter id="filter0_d_4_12" x="0" y="0" width="156" height="66" filterUnits="userSpaceOnUse" color-interpolation-filters="sRGB">
<feFlood flood-opacity="0" result="BackgroundImageFix"/>
<feColorMatrix in="SourceAlpha" type="matrix" values="0 0 0 0 0 0 0 0 0 0 0 0 0 0 0 0 0 0 127 0" result="hardAlpha"/>
<feOffset dx="4" dy="4"/>
<feGaussianBlur stdDeviation="4"/>
<feColorMatrix type="matrix" values="0 0 0 0 0.94902 0 0 0 0 0.345098 0 0 0 0 0.133333 0 0 0 0.2 0"/>
<feBlend mode="normal" in2="BackgroundImageFix" result="effect1_dropShadow_4_12"/>
<feBlend mode="normal" in="SourceGraphic" in2="effect1_dropShadow_4_12" result="shape"/>
</filter>
</defs>
</svg>
