<svg width="120" height="40" viewBox="0 0 120 40" fill="none" xmlns="http://www.w3.org/2000/svg">
<rect width="120" height="40" rx="20" fill="#F25822"/>
<path d="M36.012 18.656V19.232C36.012 20.384 35.632 21.328 34.872 22.064C34.112 22.792 33.12 23.156 31.896 23.156C30.6 23.156 29.528 22.736 28.68 21.896C27.84 21.056 27.42 20.024 27.42 18.8C27.42 17.584 27.84 16.556 28.68 15.716C29.528 14.868 30.576 14.444 31.824 14.444C32.608 14.444 33.324 14.624 33.972 14.984C34.62 15.344 35.124 15.828 35.484 16.436L34.296 17.12C34.072 16.72 33.74 16.4 33.3 16.16C32.86 15.912 32.368 15.788 31.824 15.788C30.944 15.788 30.22 16.076 29.652 16.652C29.084 17.228 28.8 17.948 28.8 18.812C28.8 19.676 29.084 20.392 29.652 20.96C30.228 21.528 30.98 21.812 31.908 21.812C32.652 21.812 33.256 21.64 33.72 21.296C34.192 20.944 34.492 20.476 34.62 19.892H31.812V18.656H36.012ZM38.2096 20.552C38.3056 21.008 38.5256 21.36 38.8696 21.608C39.2136 21.848 39.6336 21.968 40.1296 21.968C40.8176 21.968 41.3336 21.72 41.6776 21.224L42.7456 21.848C42.1536 22.72 41.2776 23.156 40.1176 23.156C39.1416 23.156 38.3536 22.86 37.7536 22.268C37.1536 21.668 36.8536 20.912 36.8536 20C36.8536 19.104 37.1496 18.356 37.7416 17.756C38.3336 17.148 39.0936 16.844 40.0216 16.844C40.9016 16.844 41.6216 17.152 42.1816 17.768C42.7496 18.384 43.0336 19.132 43.0336 20.012C43.0336 20.148 43.0176 20.328 42.9856 20.552H38.2096ZM38.1976 19.496H41.7256C41.6376 19.008 41.4336 18.64 41.1136 18.392C40.8016 18.144 40.4336 18.02 40.0096 18.02C39.5296 18.02 39.1296 18.152 38.8096 18.416C38.4896 18.68 38.2856 19.04 38.1976 19.496ZM47.3345 18.248H45.8465V21.128C45.8465 21.376 45.9025 21.556 46.0145 21.668C46.1265 21.772 46.2905 21.832 46.5065 21.848C46.7305 21.856 47.0065 21.852 47.3345 21.836V23C46.3425 23.12 45.6305 23.036 45.1985 22.748C44.7665 22.452 44.5505 21.912 44.5505 21.128V18.248H43.4465V17H44.5505V15.704L45.8465 15.32V17H47.3345V18.248ZM54.4485 23.156C53.6405 23.156 52.9525 22.972 52.3845 22.604C51.8245 22.236 51.4325 21.732 51.2085 21.092L52.3965 20.396C52.7325 21.34 53.4285 21.812 54.4845 21.812C55.0045 21.812 55.3925 21.712 55.6485 21.512C55.9125 21.304 56.0445 21.036 56.0445 20.708C56.0445 20.364 55.9045 20.104 55.6245 19.928C55.3445 19.744 54.8485 19.544 54.1365 19.328C53.7365 19.208 53.4125 19.096 53.1645 18.992C52.9165 18.888 52.6525 18.744 52.3725 18.56C52.1005 18.368 51.8965 18.132 51.7605 17.852C51.6245 17.572 51.5565 17.244 51.5565 16.868C51.5565 16.124 51.8205 15.536 52.3485 15.104C52.8765 14.664 53.5125 14.444 54.2565 14.444C54.9285 14.444 55.5165 14.608 56.0205 14.936C56.5245 15.264 56.9125 15.716 57.1845 16.292L56.0205 16.964C55.6685 16.18 55.0805 15.788 54.2565 15.788C53.8565 15.788 53.5365 15.884 53.2965 16.076C53.0565 16.26 52.9365 16.512 52.9365 16.832C52.9365 17.144 53.0565 17.392 53.2965 17.576C53.5445 17.752 53.9885 17.94 54.6285 18.14C54.9485 18.244 55.1805 18.324 55.3245 18.38C55.4765 18.428 55.6845 18.508 55.9485 18.62C56.2205 18.732 56.4245 18.844 56.5605 18.956C56.6965 19.068 56.8405 19.208 56.9925 19.376C57.1525 19.544 57.2645 19.736 57.3285 19.952C57.3925 20.168 57.4245 20.412 57.4245 20.684C57.4245 21.444 57.1485 22.048 56.5965 22.496C56.0525 22.936 55.3365 23.156 54.4485 23.156ZM61.7017 18.248H60.2137V21.128C60.2137 21.376 60.2697 21.556 60.3817 21.668C60.4937 21.772 60.6577 21.832 60.8737 21.848C61.0977 21.856 61.3737 21.852 61.7017 21.836V23C60.7097 23.12 59.9977 23.036 59.5657 22.748C59.1337 22.452 58.9177 21.912 58.9177 21.128V18.248H57.8137V17H58.9177V15.704L60.2137 15.32V17H61.7017V18.248ZM67.383 17H68.679V23H67.383V22.136C66.895 22.816 66.195 23.156 65.283 23.156C64.459 23.156 63.755 22.852 63.171 22.244C62.587 21.628 62.295 20.88 62.295 20C62.295 19.112 62.587 18.364 63.171 17.756C63.755 17.148 64.459 16.844 65.283 16.844C66.195 16.844 66.895 17.18 67.383 17.852V17ZM64.131 21.38C64.491 21.74 64.943 21.92 65.487 21.92C66.031 21.92 66.483 21.74 66.843 21.38C67.203 21.012 67.383 20.552 67.383 20C67.383 19.448 67.203 18.992 66.843 18.632C66.483 18.264 66.031 18.08 65.487 18.08C64.943 18.08 64.491 18.264 64.131 18.632C63.771 18.992 63.591 19.448 63.591 20C63.591 20.552 63.771 21.012 64.131 21.38ZM71.4856 18.008C71.8136 17.264 72.4296 16.892 73.3336 16.892V18.296C72.8376 18.264 72.4056 18.384 72.0376 18.656C71.6696 18.92 71.4856 19.36 71.4856 19.976V23H70.1896V17H71.4856V18.008ZM77.7915 18.248H76.3035V21.128C76.3035 21.376 76.3595 21.556 76.4715 21.668C76.5835 21.772 76.7475 21.832 76.9635 21.848C77.1875 21.856 77.4635 21.852 77.7915 21.836V23C76.7995 23.12 76.0875 23.036 75.6555 22.748C75.2235 22.452 75.0075 21.912 75.0075 21.128V18.248H73.9035V17H75.0075V15.704L76.3035 15.32V17H77.7915V18.248ZM79.7408 20.552C79.8368 21.008 80.0568 21.36 80.4008 21.608C80.7448 21.848 81.1648 21.968 81.6608 21.968C82.3488 21.968 82.8648 21.72 83.2088 21.224L84.2768 21.848C83.6848 22.72 82.8088 23.156 81.6488 23.156C80.6728 23.156 79.8848 22.86 79.2848 22.268C78.6848 21.668 78.3848 20.912 78.3848 20C78.3848 19.104 78.6808 18.356 79.2728 17.756C79.8648 17.148 80.6248 16.844 81.5528 16.844C82.4328 16.844 83.1528 17.152 83.7128 17.768C84.2808 18.384 84.5648 19.132 84.5648 20.012C84.5648 20.148 84.5488 20.328 84.5168 20.552H79.7408ZM79.7288 19.496H83.2568C83.1688 19.008 82.9648 18.64 82.6448 18.392C82.3328 18.144 81.9648 18.02 81.5408 18.02C81.0608 18.02 80.6608 18.152 80.3408 18.416C80.0208 18.68 79.8168 19.04 79.7288 19.496ZM90.4221 14.6H91.7181V23H90.4221V22.136C89.9341 22.816 89.2341 23.156 88.3221 23.156C87.4981 23.156 86.7941 22.852 86.2101 22.244C85.6261 21.628 85.3341 20.88 85.3341 20C85.3341 19.112 85.6261 18.364 86.2101 17.756C86.7941 17.148 87.4981 16.844 88.3221 16.844C89.2341 16.844 89.9341 17.18 90.4221 17.852V14.6ZM87.1701 21.38C87.5301 21.74 87.9821 21.92 88.5261 21.92C89.0701 21.92 89.5221 21.74 89.8821 21.38C90.2421 21.012 90.4221 20.552 90.4221 20C90.4221 19.448 90.2421 18.992 89.8821 18.632C89.5221 18.264 89.0701 18.08 88.5261 18.08C87.9821 18.08 87.5301 18.264 87.1701 18.632C86.8101 18.992 86.6301 19.448 86.6301 20C86.6301 20.552 86.8101 21.012 87.1701 21.38Z" fill="white"/>
</svg>
