<svg width="70.000000" height="70.000000" viewBox="0 0 70 70" fill="none" xmlns="http://www.w3.org/2000/svg" xmlns:xlink="http://www.w3.org/1999/xlink">
	<desc>
			Created with Pixso.
	</desc>
	<defs/>
	<rect id="Rectangle 9" rx="15.000000" width="70.000000" height="70.000000" fill="#F25822" fill-opacity="0.250000"/>
	<path id="Vector" d="M23.77 25.77L23.77 45.22L46 45.22L46 25.77L23.77 25.77ZM22.38 23L47.38 23C47.75 23 48.11 23.14 48.37 23.4C48.63 23.66 48.77 24.02 48.77 24.38L48.77 46.61C48.77 46.97 48.63 47.33 48.37 47.59C48.11 47.85 47.75 48 47.38 48L22.38 48C22.02 48 21.66 47.85 21.4 47.59C21.14 47.33 21 46.97 21 46.61L21 24.38C21 24.02 21.14 23.66 21.4 23.4C21.66 23.14 22.02 23 22.38 23ZM38.76 32.43L36.27 29.94L43.22 29.94L43.22 36.88L40.73 34.39L35.36 39.76L32.41 36.81L28.49 40.74L26.52 38.78L32.41 32.89L35.36 35.83L38.76 32.43Z" fill="#F25822" fill-opacity="1.000000" fill-rule="nonzero"/>
</svg>
