<svg width="70.000000" height="70.000000" viewBox="0 0 70 70" fill="none" xmlns="http://www.w3.org/2000/svg" xmlns:xlink="http://www.w3.org/1999/xlink">
	<desc>
			Created with Pixso.
	</desc>
	<defs/>
	<rect id="Rectangle 9" rx="15.000000" width="70.000000" height="70.000000" fill="#149211" fill-opacity="0.280000"/>
	<g opacity="0.000000">
		<path id="Vector" d="M23 23L48 23L48 48L23 48L23 23Z" fill="#149211" fill-opacity="1.000000" fill-rule="evenodd"/>
	</g>
	<path id="Vector" d="M34.57 46.95C34.45 46.95 34.33 46.93 34.21 46.89C33.99 46.81 33.81 46.66 33.69 46.46C33.56 46.26 33.51 46.03 33.54 45.8L34.34 38.41L28.2 38.41C28.01 38.41 27.83 38.36 27.67 38.26C27.5 38.17 27.37 38.03 27.28 37.86C27.19 37.69 27.15 37.5 27.16 37.32C27.17 37.13 27.23 36.94 27.34 36.79L35.56 24.49C35.69 24.3 35.88 24.16 36.1 24.09C36.32 24.02 36.56 24.02 36.78 24.1C36.99 24.18 37.17 24.32 37.29 24.51C37.41 24.7 37.47 24.92 37.45 25.14L36.65 32.58L42.79 32.58C42.98 32.58 43.16 32.63 43.32 32.73C43.49 32.82 43.62 32.96 43.71 33.13C43.8 33.3 43.84 33.49 43.83 33.67C43.82 33.86 43.76 34.05 43.65 34.2L35.43 46.49C35.34 46.64 35.21 46.75 35.06 46.83C34.91 46.91 34.74 46.95 34.57 46.95ZM30.15 36.33L35.5 36.33C35.64 36.33 35.78 36.36 35.92 36.42C36.05 36.48 36.17 36.56 36.27 36.67C36.36 36.78 36.44 36.91 36.48 37.05C36.53 37.19 36.54 37.34 36.53 37.48L36.06 41.81L40.84 34.66L35.5 34.66C35.35 34.66 35.2 34.63 35.07 34.57C34.93 34.51 34.81 34.43 34.71 34.32C34.62 34.21 34.54 34.08 34.5 33.94C34.45 33.8 34.44 33.65 34.45 33.51L34.92 29.18L30.15 36.33Z" fill="#149211" fill-opacity="1.000000" fill-rule="nonzero"/>
</svg>
