<svg width="70.000000" height="70.000000" viewBox="0 0 70 70" fill="none" xmlns="http://www.w3.org/2000/svg" xmlns:xlink="http://www.w3.org/1999/xlink">
	<desc>
			Created with Pixso.
	</desc>
	<defs/>
	<rect id="Rectangle 9" rx="15.000000" width="70.000000" height="70.000000" fill="#FFCD1D" fill-opacity="0.240000"/>
	<g opacity="0.000000">
		<path id="Vector" d="M23 23L48 23L48 48L23 48L23 23Z" fill="#FFC700" fill-opacity="1.000000" fill-rule="evenodd"/>
	</g>
	<path id="Vector" d="M36.4 45.91C35.9 45.91 35.42 45.71 35.06 45.36L28.38 38.67C28.21 38.5 28.1 38.28 28.08 38.04L27.16 28.3C27.15 28.14 27.17 27.99 27.22 27.85C27.27 27.7 27.36 27.57 27.46 27.46C27.57 27.36 27.7 27.27 27.85 27.22C27.99 27.17 28.14 27.15 28.3 27.16L38.04 28.08C38.28 28.1 38.5 28.21 38.67 28.38L45.36 35.06C45.71 35.41 45.91 35.89 45.91 36.4C45.91 36.9 45.71 37.38 45.36 37.73L37.73 45.36C37.38 45.71 36.9 45.91 36.4 45.91ZM30.15 37.46L36.4 43.71L43.74 36.37L37.49 30.12L29.36 29.36L30.15 37.46Z" fill="#FFC700" fill-opacity="1.000000" fill-rule="nonzero"/>
	<path id="Vector" d="M35.5 33.93C35.5 34.8 34.8 35.5 33.93 35.5C33.07 35.5 32.37 34.8 32.37 33.93C32.37 33.07 33.07 32.37 33.93 32.37C34.8 32.37 35.5 33.07 35.5 33.93Z" fill="#FFC700" fill-opacity="1.000000" fill-rule="evenodd"/>
</svg>
